<mxfile host="app.diagrams.net" agent="Mozilla/5.0 (Windows NT 10.0; Win64; x64) AppleWebKit/537.36 (KHTML, like Gecko) Chrome/137.0.0.0 Safari/537.36" version="27.1.3">
  <diagram name="Página-1" id="p8mnpOuK0QykvPH6QzqD">
    <mxGraphModel dx="610" dy="268" grid="0" gridSize="10" guides="1" tooltips="1" connect="1" arrows="1" fold="1" page="1" pageScale="1" pageWidth="827" pageHeight="1169" math="0" shadow="0">
      <root>
        <mxCell id="0" />
        <mxCell id="1" parent="0" />
        <mxCell id="f1ypKZVCGWiF2pPGDrKQ-1" value="Aparato" style="rounded=0;whiteSpace=wrap;html=1;labelBackgroundColor=none;" vertex="1" parent="1">
          <mxGeometry x="320" y="330" width="90" height="30" as="geometry" />
        </mxCell>
        <mxCell id="f1ypKZVCGWiF2pPGDrKQ-2" value="" style="group;rounded=0;labelBackgroundColor=none;" vertex="1" connectable="0" parent="1">
          <mxGeometry x="325" y="420" width="80" height="50" as="geometry" />
        </mxCell>
        <mxCell id="f1ypKZVCGWiF2pPGDrKQ-3" value="" style="ellipse;whiteSpace=wrap;html=1;rounded=0;labelBackgroundColor=none;" vertex="1" parent="f1ypKZVCGWiF2pPGDrKQ-2">
          <mxGeometry width="80" height="50" as="geometry" />
        </mxCell>
        <mxCell id="f1ypKZVCGWiF2pPGDrKQ-4" value="Tipo" style="ellipse;whiteSpace=wrap;html=1;rounded=0;labelBackgroundColor=none;" vertex="1" parent="f1ypKZVCGWiF2pPGDrKQ-2">
          <mxGeometry x="3.3333333333333335" y="3.125" width="73.33333333333333" height="43.75" as="geometry" />
        </mxCell>
        <mxCell id="f1ypKZVCGWiF2pPGDrKQ-5" value="&lt;u&gt;Modelo&lt;/u&gt;" style="ellipse;whiteSpace=wrap;html=1;rounded=0;labelBackgroundColor=none;" vertex="1" parent="1">
          <mxGeometry x="220" y="240" width="80" height="50" as="geometry" />
        </mxCell>
        <mxCell id="f1ypKZVCGWiF2pPGDrKQ-6" value="&lt;u&gt;Marca&lt;/u&gt;" style="ellipse;whiteSpace=wrap;html=1;rounded=0;labelBackgroundColor=none;" vertex="1" parent="1">
          <mxGeometry x="325" y="220" width="80" height="40" as="geometry" />
        </mxCell>
        <mxCell id="f1ypKZVCGWiF2pPGDrKQ-7" value="Garantía" style="ellipse;whiteSpace=wrap;html=1;rounded=0;labelBackgroundColor=none;" vertex="1" parent="1">
          <mxGeometry x="440" y="330" width="80" height="30" as="geometry" />
        </mxCell>
        <mxCell id="f1ypKZVCGWiF2pPGDrKQ-8" value="FECHADECOMPRA" style="ellipse;whiteSpace=wrap;html=1;rounded=0;labelBackgroundColor=none;" vertex="1" parent="1">
          <mxGeometry x="575" y="270" width="130" height="50" as="geometry" />
        </mxCell>
        <mxCell id="f1ypKZVCGWiF2pPGDrKQ-9" value="COMERCIOVENDEDOR" style="ellipse;whiteSpace=wrap;html=1;rounded=0;labelBackgroundColor=none;" vertex="1" parent="1">
          <mxGeometry x="550" y="350" width="180" height="50" as="geometry" />
        </mxCell>
        <mxCell id="f1ypKZVCGWiF2pPGDrKQ-10" value="" style="endArrow=none;html=1;rounded=0;entryX=0;entryY=0.5;entryDx=0;entryDy=0;exitX=1;exitY=0;exitDx=0;exitDy=0;labelBackgroundColor=none;fontColor=default;" edge="1" parent="1" source="f1ypKZVCGWiF2pPGDrKQ-7" target="f1ypKZVCGWiF2pPGDrKQ-8">
          <mxGeometry width="50" height="50" relative="1" as="geometry">
            <mxPoint x="500" y="330" as="sourcePoint" />
            <mxPoint x="550" y="280" as="targetPoint" />
          </mxGeometry>
        </mxCell>
        <mxCell id="f1ypKZVCGWiF2pPGDrKQ-13" value="" style="endArrow=none;html=1;rounded=0;entryX=0;entryY=0.5;entryDx=0;entryDy=0;exitX=1;exitY=1;exitDx=0;exitDy=0;labelBackgroundColor=none;fontColor=default;" edge="1" parent="1" source="f1ypKZVCGWiF2pPGDrKQ-7" target="f1ypKZVCGWiF2pPGDrKQ-9">
          <mxGeometry width="50" height="50" relative="1" as="geometry">
            <mxPoint x="509" y="342" as="sourcePoint" />
            <mxPoint x="560" y="295" as="targetPoint" />
          </mxGeometry>
        </mxCell>
        <mxCell id="f1ypKZVCGWiF2pPGDrKQ-16" value="" style="endArrow=none;html=1;rounded=0;entryX=0;entryY=0.5;entryDx=0;entryDy=0;exitX=1;exitY=0.5;exitDx=0;exitDy=0;labelBackgroundColor=none;fontColor=default;" edge="1" parent="1" source="f1ypKZVCGWiF2pPGDrKQ-1" target="f1ypKZVCGWiF2pPGDrKQ-7">
          <mxGeometry width="50" height="50" relative="1" as="geometry">
            <mxPoint x="539" y="372" as="sourcePoint" />
            <mxPoint x="590" y="325" as="targetPoint" />
          </mxGeometry>
        </mxCell>
        <mxCell id="f1ypKZVCGWiF2pPGDrKQ-17" value="" style="endArrow=none;html=1;rounded=0;entryX=0.5;entryY=0;entryDx=0;entryDy=0;exitX=0.5;exitY=1;exitDx=0;exitDy=0;labelBackgroundColor=none;fontColor=default;" edge="1" parent="1" source="f1ypKZVCGWiF2pPGDrKQ-1" target="f1ypKZVCGWiF2pPGDrKQ-3">
          <mxGeometry width="50" height="50" relative="1" as="geometry">
            <mxPoint x="549" y="382" as="sourcePoint" />
            <mxPoint x="600" y="335" as="targetPoint" />
          </mxGeometry>
        </mxCell>
        <mxCell id="f1ypKZVCGWiF2pPGDrKQ-18" value="" style="endArrow=none;html=1;rounded=0;entryX=0.5;entryY=0;entryDx=0;entryDy=0;exitX=0.5;exitY=1;exitDx=0;exitDy=0;labelBackgroundColor=none;fontColor=default;" edge="1" parent="1" source="f1ypKZVCGWiF2pPGDrKQ-6" target="f1ypKZVCGWiF2pPGDrKQ-1">
          <mxGeometry width="50" height="50" relative="1" as="geometry">
            <mxPoint x="360" y="280" as="sourcePoint" />
            <mxPoint x="360" y="330" as="targetPoint" />
          </mxGeometry>
        </mxCell>
        <mxCell id="f1ypKZVCGWiF2pPGDrKQ-19" value="" style="endArrow=none;html=1;rounded=0;entryX=0;entryY=0;entryDx=0;entryDy=0;labelBackgroundColor=none;fontColor=default;exitX=0.911;exitY=0.799;exitDx=0;exitDy=0;exitPerimeter=0;" edge="1" parent="1" source="f1ypKZVCGWiF2pPGDrKQ-5" target="f1ypKZVCGWiF2pPGDrKQ-1">
          <mxGeometry width="50" height="50" relative="1" as="geometry">
            <mxPoint x="280" y="260" as="sourcePoint" />
            <mxPoint x="375" y="340" as="targetPoint" />
          </mxGeometry>
        </mxCell>
        <mxCell id="f1ypKZVCGWiF2pPGDrKQ-20" value="&lt;u&gt;Serie&lt;/u&gt;" style="ellipse;whiteSpace=wrap;html=1;rounded=0;labelBackgroundColor=none;" vertex="1" parent="1">
          <mxGeometry x="200" y="320" width="80" height="50" as="geometry" />
        </mxCell>
        <mxCell id="f1ypKZVCGWiF2pPGDrKQ-21" value="" style="endArrow=none;html=1;rounded=0;entryX=0;entryY=0.5;entryDx=0;entryDy=0;exitX=1;exitY=0.5;exitDx=0;exitDy=0;labelBackgroundColor=none;fontColor=default;" edge="1" parent="1" source="f1ypKZVCGWiF2pPGDrKQ-20" target="f1ypKZVCGWiF2pPGDrKQ-1">
          <mxGeometry width="50" height="50" relative="1" as="geometry">
            <mxPoint x="375" y="380" as="sourcePoint" />
            <mxPoint x="320" y="425" as="targetPoint" />
          </mxGeometry>
        </mxCell>
      </root>
    </mxGraphModel>
  </diagram>
</mxfile>
